<svg width="324" height="80" viewBox="0 0 324 80" fill="none" xmlns="http://www.w3.org/2000/svg">
<path d="M0 10C0 4.47715 4.47715 0 10 0H314C319.523 0 324 4.47715 324 10V68C324 73.5229 319.523 78 314 78H9.99999C4.47715 78 0 73.5229 0 68V10Z" fill="#AE8FF0"/>
<path d="M47.816 61C47.6453 61 47.56 60.8933 47.56 60.68L47.624 16.712C47.624 16.5413 47.7093 16.456 47.88 16.456H68.424C68.5947 16.456 68.68 16.5627 68.68 16.776V23.944C68.68 24.1147 68.5947 24.2 68.424 24.2H55.304V34.184H68.424C68.5947 34.184 68.68 34.2693 68.68 34.44L68.744 41.672C68.744 41.8427 68.6587 41.928 68.488 41.928H55.304V53.128H68.488C68.6587 53.128 68.744 53.2347 68.744 53.448V60.744C68.744 60.9147 68.6587 61 68.488 61H47.816ZM75.011 61C74.6697 61 74.499 60.8507 74.499 60.552L74.435 16.968C74.435 16.6267 74.6057 16.456 74.947 16.456H80.707L91.523 41.672L91.203 16.968C91.203 16.6267 91.395 16.456 91.779 16.456H98.115C98.371 16.456 98.499 16.6267 98.499 16.968L98.563 60.616C98.563 60.872 98.4563 61 98.243 61H92.611L81.539 37.448L81.987 60.488C81.987 60.8293 81.795 61 81.411 61H75.011ZM104.443 61C104.229 61 104.123 60.8933 104.123 60.68L104.251 16.712C104.251 16.5413 104.336 16.456 104.507 16.456L116.475 16.392C118.821 16.3493 120.955 16.904 122.875 18.056C124.837 19.208 126.395 20.7653 127.547 22.728C128.699 24.648 129.275 26.7813 129.275 29.128V47.496C129.275 49.9707 128.677 52.232 127.483 54.28C126.288 56.2853 124.688 57.8853 122.683 59.08C120.677 60.2747 118.416 60.8933 115.899 60.936L104.443 61ZM111.931 53.128H115.899C117.477 53.128 118.8 52.5733 119.867 51.464C120.976 50.3547 121.531 49.032 121.531 47.496V29.064C121.531 27.6987 121.019 26.5253 119.995 25.544C119.013 24.52 117.84 24.0293 116.475 24.072L111.995 24.136L111.931 53.128ZM154.69 61.64C152.386 61.64 150.274 61.064 148.354 59.912C146.477 58.7173 144.962 57.16 143.81 55.24C142.701 53.2773 142.146 51.1227 142.146 48.776V45.832C142.146 45.6187 142.253 45.512 142.466 45.512H149.634C149.805 45.512 149.89 45.6187 149.89 45.832V48.776C149.89 50.184 150.359 51.4 151.298 52.424C152.237 53.4053 153.367 53.896 154.69 53.896C156.013 53.896 157.143 53.384 158.082 52.36C159.021 51.336 159.49 50.1413 159.49 48.776C159.49 47.1973 158.466 45.832 156.418 44.68C155.735 44.296 154.669 43.6987 153.218 42.888C151.767 42.0773 150.402 41.3093 149.122 40.584C146.775 39.2187 145.026 37.512 143.874 35.464C142.765 33.3733 142.21 31.0267 142.21 28.424C142.21 26.0347 142.786 23.9013 143.938 22.024C145.09 20.104 146.605 18.5893 148.482 17.48C150.402 16.3707 152.471 15.816 154.69 15.816C156.951 15.816 159.021 16.392 160.898 17.544C162.818 18.6533 164.333 20.168 165.442 22.088C166.594 23.9653 167.17 26.0773 167.17 28.424V33.672C167.17 33.8427 167.085 33.928 166.914 33.928H159.746C159.575 33.928 159.49 33.8427 159.49 33.672L159.426 28.424C159.426 26.9307 158.957 25.7147 158.018 24.776C157.079 23.8373 155.97 23.368 154.69 23.368C153.367 23.368 152.237 23.88 151.298 24.904C150.359 25.8853 149.89 27.0587 149.89 28.424C149.89 29.832 150.189 31.0053 150.786 31.944C151.383 32.8827 152.471 33.7787 154.05 34.632C154.263 34.76 154.669 34.9947 155.266 35.336C155.906 35.6347 156.589 35.9973 157.314 36.424C158.039 36.808 158.679 37.1493 159.234 37.448C159.831 37.7467 160.194 37.9387 160.322 38.024C162.455 39.2187 164.141 40.6907 165.378 42.44C166.615 44.1467 167.234 46.2587 167.234 48.776C167.234 51.208 166.658 53.4053 165.506 55.368C164.397 57.288 162.882 58.824 160.962 59.976C159.085 61.0853 156.994 61.64 154.69 61.64ZM177.773 61C177.602 61 177.517 60.8933 177.517 60.68V24.2H169.197C168.983 24.2 168.877 24.0933 168.877 23.88L168.941 16.712C168.941 16.5413 169.026 16.456 169.197 16.456H193.517C193.73 16.456 193.837 16.5413 193.837 16.712V23.88C193.837 24.0933 193.751 24.2 193.581 24.2H185.197L185.26 60.68C185.26 60.8933 185.175 61 185.005 61H177.773ZM207.4 61.64C205.096 61.64 202.984 61.064 201.064 59.912C199.187 58.7173 197.672 57.16 196.52 55.24C195.368 53.2773 194.792 51.1227 194.792 48.776L194.856 28.488C194.856 26.1413 195.411 24.008 196.52 22.088C197.672 20.168 199.208 18.632 201.128 17.48C203.048 16.328 205.139 15.752 207.4 15.752C209.704 15.752 211.795 16.328 213.672 17.48C215.549 18.632 217.043 20.168 218.152 22.088C219.304 24.008 219.88 26.1413 219.88 28.488L219.944 48.776C219.944 51.1227 219.368 53.2773 218.216 55.24C217.107 57.16 215.592 58.7173 213.672 59.912C211.795 61.064 209.704 61.64 207.4 61.64ZM207.4 53.896C208.68 53.896 209.789 53.384 210.728 52.36C211.709 51.2933 212.2 50.0987 212.2 48.776L212.136 28.488C212.136 27.08 211.688 25.8853 210.792 24.904C209.896 23.9227 208.765 23.432 207.4 23.432C206.077 23.432 204.947 23.9227 204.008 24.904C203.069 25.8427 202.6 27.0373 202.6 28.488V48.776C202.6 50.184 203.069 51.4 204.008 52.424C204.947 53.4053 206.077 53.896 207.4 53.896ZM225.066 61C224.895 61 224.81 60.8933 224.81 60.68L224.938 16.712C224.938 16.5413 225.023 16.456 225.194 16.456H238.122C240.426 16.456 242.538 17.032 244.458 18.184C246.421 19.2933 247.978 20.808 249.13 22.728C250.282 24.6053 250.858 26.7387 250.858 29.128C250.858 30.7067 250.623 32.136 250.154 33.416C249.685 34.6533 249.13 35.72 248.49 36.616C247.85 37.4693 247.274 38.1093 246.762 38.536C249.066 41.096 250.218 44.104 250.218 47.56L250.282 60.68C250.282 60.8933 250.175 61 249.962 61H242.73C242.559 61 242.474 60.936 242.474 60.808V47.56C242.474 46.024 241.919 44.7013 240.81 43.592C239.743 42.44 238.421 41.864 236.842 41.864H232.618L232.554 60.68C232.554 60.8933 232.469 61 232.298 61H225.066ZM232.618 34.184H238.122C239.445 34.184 240.618 33.6933 241.642 32.712C242.666 31.7307 243.178 30.536 243.178 29.128C243.178 27.7627 242.666 26.5893 241.642 25.608C240.661 24.6267 239.487 24.136 238.122 24.136H232.618V34.184ZM259.7 61C259.572 61 259.508 60.9147 259.508 60.744L259.572 42.568L250.995 16.712C250.953 16.5413 251.017 16.456 251.188 16.456H258.292C258.505 16.456 258.633 16.5413 258.676 16.712L263.412 33.928L268.212 16.712C268.254 16.5413 268.361 16.456 268.532 16.456H275.7C275.87 16.456 275.934 16.5413 275.892 16.712L267.252 42.312L267.316 60.744C267.316 60.9147 267.23 61 267.06 61H259.7Z" fill="black"/>
</svg>
