<svg width="273" height="45" viewBox="0 0 273 45" fill="none" xmlns="http://www.w3.org/2000/svg">
<path d="M0 10C0 4.47715 4.47715 0 10 0H263C268.523 0 273 4.47715 273 10V32C273 37.5228 268.523 42 263 42H10C4.47715 42 0 37.5228 0 32V10Z" fill="#C4C4C4"/>
<path d="M0 10C0 4.47715 4.47715 0 10 0H263C268.523 0 273 4.47715 273 10V32C273 37.5228 268.523 42 263 42H10C4.47715 42 0 37.5228 0 32V10Z" fill="#AE8FF0"/>
<path d="M46.62 34C46.5 34 46.44 33.94 46.44 33.82L46.512 9.088C46.512 8.992 46.56 8.944 46.656 8.944H58.176C58.296 8.944 58.356 8.992 58.356 9.088V13.156C58.356 13.252 58.308 13.3 58.212 13.3H50.832V18.88H58.212C58.308 18.88 58.356 18.94 58.356 19.06L58.392 23.128C58.392 23.224 58.332 23.272 58.212 23.272H50.832V33.82C50.832 33.94 50.772 34 50.652 34H46.62ZM61.7723 34C61.6523 34 61.5923 33.94 61.5923 33.82L61.6283 9.088C61.6283 8.992 61.6763 8.944 61.7723 8.944H65.8043C65.9003 8.944 65.9483 8.992 65.9483 9.088L65.9843 33.82C65.9843 33.94 65.9363 34 65.8403 34H61.7723ZM69.4749 34C69.2829 34 69.1869 33.916 69.1869 33.748L69.1509 9.232C69.1509 9.04 69.2469 8.944 69.4389 8.944H72.6789L78.7629 23.128L78.5829 9.232C78.5829 9.04 78.6909 8.944 78.9069 8.944H82.4709C82.6149 8.944 82.6869 9.04 82.6869 9.232L82.7229 33.784C82.7229 33.928 82.6629 34 82.5429 34H79.3749L73.1469 20.752L73.3989 33.712C73.3989 33.904 73.2909 34 73.0749 34H69.4749ZM86.0302 34C85.9102 34 85.8502 33.94 85.8502 33.82L85.9222 9.088C85.9222 8.992 85.9702 8.944 86.0662 8.944L92.7982 8.908C94.1182 8.884 95.3182 9.196 96.3982 9.844C97.5022 10.492 98.3782 11.368 99.0262 12.472C99.6742 13.552 99.9982 14.752 99.9982 16.072V26.404C99.9982 27.796 99.6622 29.068 98.9902 30.22C98.3182 31.348 97.4182 32.248 96.2902 32.92C95.1622 33.592 93.8902 33.94 92.4742 33.964L86.0302 34ZM90.2422 29.572H92.4742C93.3622 29.572 94.1062 29.26 94.7062 28.636C95.3302 28.012 95.6422 27.268 95.6422 26.404V16.036C95.6422 15.268 95.3542 14.608 94.7782 14.056C94.2262 13.48 93.5662 13.204 92.7982 13.228L90.2782 13.264L90.2422 29.572ZM114.834 34.36C113.538 34.36 112.35 34.036 111.27 33.388C110.214 32.716 109.362 31.84 108.714 30.76C108.066 29.656 107.742 28.444 107.742 27.124L107.778 15.712C107.778 14.392 108.09 13.192 108.714 12.112C109.362 11.032 110.226 10.168 111.306 9.52C112.386 8.872 113.562 8.548 114.834 8.548C116.13 8.548 117.306 8.872 118.362 9.52C119.418 10.168 120.258 11.032 120.882 12.112C121.53 13.192 121.854 14.392 121.854 15.712L121.89 27.124C121.89 28.444 121.566 29.656 120.918 30.76C120.294 31.84 119.442 32.716 118.362 33.388C117.306 34.036 116.13 34.36 114.834 34.36ZM114.834 30.004C115.554 30.004 116.178 29.716 116.706 29.14C117.258 28.54 117.534 27.868 117.534 27.124L117.498 15.712C117.498 14.92 117.246 14.248 116.742 13.696C116.238 13.144 115.602 12.868 114.834 12.868C114.09 12.868 113.454 13.144 112.926 13.696C112.398 14.224 112.134 14.896 112.134 15.712V27.124C112.134 27.916 112.398 28.6 112.926 29.176C113.454 29.728 114.09 30.004 114.834 30.004ZM131.462 34.36C130.19 34.36 129.014 34.036 127.934 33.388C126.854 32.716 125.99 31.828 125.342 30.724C124.718 29.62 124.406 28.408 124.406 27.088L124.478 9.088C124.478 8.992 124.526 8.944 124.622 8.944H128.654C128.75 8.944 128.798 8.992 128.798 9.088V27.088C128.798 27.904 129.05 28.6 129.554 29.176C130.082 29.728 130.718 30.004 131.462 30.004C132.23 30.004 132.866 29.728 133.37 29.176C133.898 28.6 134.162 27.904 134.162 27.088V9.088C134.162 8.992 134.21 8.944 134.306 8.944H138.338C138.434 8.944 138.482 8.992 138.482 9.088L138.554 27.088C138.554 28.432 138.23 29.656 137.582 30.76C136.958 31.864 136.106 32.74 135.026 33.388C133.97 34.036 132.782 34.36 131.462 34.36ZM144.997 34C144.901 34 144.853 33.94 144.853 33.82V13.3H140.173C140.053 13.3 139.993 13.24 139.993 13.12L140.029 9.088C140.029 8.992 140.077 8.944 140.173 8.944H153.853C153.973 8.944 154.033 8.992 154.033 9.088V13.12C154.033 13.24 153.985 13.3 153.889 13.3H149.173L149.209 33.82C149.209 33.94 149.161 34 149.065 34H144.997ZM161.299 34C161.203 34 161.155 33.94 161.155 33.82L161.227 9.088C161.227 8.992 161.275 8.944 161.371 8.944H165.763C165.859 8.944 165.943 8.992 166.015 9.088L169.291 13.84L172.567 9.088C172.639 8.992 172.723 8.944 172.819 8.944H177.247C177.343 8.944 177.391 8.992 177.391 9.088L177.463 33.82C177.463 33.94 177.415 34 177.319 34H173.251C173.155 34 173.107 33.94 173.107 33.82L173.071 15.46L169.291 20.932L165.547 15.46L165.511 33.82C165.511 33.94 165.463 34 165.367 34H161.299ZM187.151 34.36C185.855 34.36 184.667 34.036 183.587 33.388C182.531 32.716 181.679 31.84 181.031 30.76C180.383 29.656 180.059 28.444 180.059 27.124L180.095 15.712C180.095 14.392 180.407 13.192 181.031 12.112C181.679 11.032 182.543 10.168 183.623 9.52C184.703 8.872 185.879 8.548 187.151 8.548C188.447 8.548 189.623 8.872 190.679 9.52C191.735 10.168 192.575 11.032 193.199 12.112C193.847 13.192 194.171 14.392 194.171 15.712L194.207 27.124C194.207 28.444 193.883 29.656 193.235 30.76C192.611 31.84 191.759 32.716 190.679 33.388C189.623 34.036 188.447 34.36 187.151 34.36ZM187.151 30.004C187.871 30.004 188.495 29.716 189.023 29.14C189.575 28.54 189.851 27.868 189.851 27.124L189.815 15.712C189.815 14.92 189.563 14.248 189.059 13.696C188.555 13.144 187.919 12.868 187.151 12.868C186.407 12.868 185.771 13.144 185.243 13.696C184.715 14.224 184.451 14.896 184.451 15.712V27.124C184.451 27.916 184.715 28.6 185.243 29.176C185.771 29.728 186.407 30.004 187.151 30.004ZM197.088 34C196.992 34 196.944 33.94 196.944 33.82L197.016 9.088C197.016 8.992 197.064 8.944 197.16 8.944H204.432C205.728 8.944 206.916 9.268 207.996 9.916C209.1 10.54 209.976 11.392 210.624 12.472C211.272 13.528 211.596 14.728 211.596 16.072C211.596 16.96 211.464 17.764 211.2 18.484C210.936 19.18 210.624 19.78 210.264 20.284C209.904 20.764 209.58 21.124 209.292 21.364C210.588 22.804 211.236 24.496 211.236 26.44L211.272 33.82C211.272 33.94 211.212 34 211.092 34H207.024C206.928 34 206.88 33.964 206.88 33.892V26.44C206.88 25.576 206.568 24.832 205.944 24.208C205.344 23.56 204.6 23.236 203.712 23.236H201.336L201.3 33.82C201.3 33.94 201.252 34 201.156 34H197.088ZM201.336 18.916H204.432C205.176 18.916 205.836 18.64 206.412 18.088C206.988 17.536 207.276 16.864 207.276 16.072C207.276 15.304 206.988 14.644 206.412 14.092C205.86 13.54 205.2 13.264 204.432 13.264H201.336V18.916ZM214.455 34C214.359 34 214.311 33.94 214.311 33.82L214.347 9.088C214.347 8.992 214.395 8.944 214.491 8.944H226.047C226.143 8.944 226.191 9.004 226.191 9.124V13.156C226.191 13.252 226.143 13.3 226.047 13.3H218.667V18.916H226.047C226.143 18.916 226.191 18.964 226.191 19.06L226.227 23.128C226.227 23.224 226.179 23.272 226.083 23.272H218.667V29.572H226.083C226.179 29.572 226.227 29.632 226.227 29.752V33.856C226.227 33.952 226.179 34 226.083 34H214.455Z" fill="#010101"/>
</svg>
