<svg width="457" height="79" viewBox="0 0 457 79" fill="none" xmlns="http://www.w3.org/2000/svg">
<path d="M0 10C0 4.47715 4.47715 0 10 0H447C452.523 0 457 4.47715 457 10V69C457 74.5229 452.523 79 447 79H9.99999C4.47714 79 0 74.5229 0 69V10Z" fill="#AE8FF0"/>
<path d="M59.272 62.64C56.968 62.64 54.8773 62.064 53 60.912C51.1227 59.76 49.608 58.224 48.456 56.304C47.3467 54.3413 46.792 52.1653 46.792 49.776V29.488C46.792 27.184 47.3467 25.072 48.456 23.152C49.608 21.1893 51.1227 19.632 53 18.48C54.92 17.328 57.0107 16.752 59.272 16.752C61.6187 16.752 63.7307 17.328 65.608 18.48C67.528 19.5893 69.0427 21.104 70.152 23.024C71.2613 24.944 71.816 27.0987 71.816 29.488V32.432C71.816 32.6027 71.7093 32.688 71.496 32.688H64.328C64.1573 32.688 64.072 32.6027 64.072 32.432V30C64.072 28.3787 63.6027 27.0347 62.664 25.968C61.768 24.9013 60.6373 24.368 59.272 24.368C58.0347 24.368 56.9253 24.88 55.944 25.904C55.0053 26.928 54.536 28.1227 54.536 29.488V49.776C54.536 51.184 55.0053 52.4 55.944 53.424C56.8827 54.4053 57.992 54.896 59.272 54.896C60.6373 54.896 61.768 54.4053 62.664 53.424C63.6027 52.4427 64.072 51.2267 64.072 49.776V46.64H59.592C59.3787 46.64 59.272 46.5333 59.272 46.32V39.152C59.272 38.9387 59.3787 38.832 59.592 38.832H71.56C71.7307 38.832 71.816 38.9387 71.816 39.152V49.776C71.816 52.1653 71.24 54.3413 70.088 56.304C68.9787 58.224 67.4853 59.76 65.608 60.912C63.7307 62.064 61.6187 62.64 59.272 62.64ZM76.6285 62C76.4578 62 76.3725 61.8933 76.3725 61.68L76.4365 17.712C76.4365 17.5413 76.5218 17.456 76.6925 17.456H97.2365C97.4072 17.456 97.4925 17.5627 97.4925 17.776V24.944C97.4925 25.1147 97.4072 25.2 97.2365 25.2H84.1165V35.184H97.2365C97.4072 35.184 97.4925 35.2693 97.4925 35.44L97.5565 42.672C97.5565 42.8427 97.4712 42.928 97.3005 42.928H84.1165V54.128H97.3005C97.4712 54.128 97.5565 54.2347 97.5565 54.448V61.744C97.5565 61.9147 97.4712 62 97.3005 62H76.6285ZM103.824 62C103.482 62 103.312 61.8507 103.312 61.552L103.248 17.968C103.248 17.6267 103.418 17.456 103.76 17.456H109.52L120.336 42.672L120.016 17.968C120.016 17.6267 120.208 17.456 120.592 17.456H126.928C127.184 17.456 127.312 17.6267 127.312 17.968L127.376 61.616C127.376 61.872 127.269 62 127.056 62H121.424L110.352 38.448L110.8 61.488C110.8 61.8293 110.608 62 110.224 62H103.824ZM133.191 62C133.02 62 132.935 61.8933 132.935 61.68L132.999 17.712C132.999 17.5413 133.084 17.456 133.255 17.456H153.799C153.97 17.456 154.055 17.5627 154.055 17.776V24.944C154.055 25.1147 153.97 25.2 153.799 25.2H140.679V35.184H153.799C153.97 35.184 154.055 35.2693 154.055 35.44L154.119 42.672C154.119 42.8427 154.034 42.928 153.863 42.928H140.679V54.128H153.863C154.034 54.128 154.119 54.2347 154.119 54.448V61.744C154.119 61.9147 154.034 62 153.863 62H133.191ZM160.066 62C159.895 62 159.81 61.8933 159.81 61.68L159.938 17.712C159.938 17.5413 160.023 17.456 160.194 17.456H173.122C175.426 17.456 177.538 18.032 179.458 19.184C181.421 20.2933 182.978 21.808 184.13 23.728C185.282 25.6053 185.858 27.7387 185.858 30.128C185.858 31.7067 185.623 33.136 185.154 34.416C184.685 35.6533 184.13 36.72 183.49 37.616C182.85 38.4693 182.274 39.1093 181.762 39.536C184.066 42.096 185.218 45.104 185.218 48.56L185.282 61.68C185.282 61.8933 185.175 62 184.962 62H177.73C177.559 62 177.474 61.936 177.474 61.808V48.56C177.474 47.024 176.919 45.7013 175.81 44.592C174.743 43.44 173.421 42.864 171.842 42.864H167.618L167.554 61.68C167.554 61.8933 167.469 62 167.298 62H160.066ZM167.618 35.184H173.122C174.445 35.184 175.618 34.6933 176.642 33.712C177.666 32.7307 178.178 31.536 178.178 30.128C178.178 28.7627 177.666 27.5893 176.642 26.608C175.661 25.6267 174.487 25.136 173.122 25.136H167.618V35.184ZM188.509 61.68L196.445 17.712C196.488 17.5413 196.594 17.456 196.765 17.456H206.045C206.216 17.456 206.322 17.5413 206.365 17.712L213.981 61.68C214.024 61.8933 213.938 62 213.725 62H206.621C206.45 62 206.344 61.8933 206.301 61.68L205.597 57.008H196.893L196.189 61.68C196.146 61.8933 196.04 62 195.869 62H188.765C188.594 62 188.509 61.8933 188.509 61.68ZM198.173 50.16H204.317L201.693 32.176L201.309 29.808L201.053 32.176L198.173 50.16ZM221.335 62C221.164 62 221.079 61.8933 221.079 61.68V25.2H212.759C212.546 25.2 212.439 25.0933 212.439 24.88L212.503 17.712C212.503 17.5413 212.588 17.456 212.759 17.456H237.079C237.292 17.456 237.399 17.5413 237.399 17.712V24.88C237.399 25.0933 237.314 25.2 237.143 25.2H228.759L228.823 61.68C228.823 61.8933 228.738 62 228.567 62H221.335ZM240.816 62C240.645 62 240.56 61.8933 240.56 61.68L240.624 17.712C240.624 17.5413 240.709 17.456 240.88 17.456H261.424C261.595 17.456 261.68 17.5627 261.68 17.776V24.944C261.68 25.1147 261.595 25.2 261.424 25.2H248.304V35.184H261.424C261.595 35.184 261.68 35.2693 261.68 35.44L261.744 42.672C261.744 42.8427 261.659 42.928 261.488 42.928H248.304V54.128H261.488C261.659 54.128 261.744 54.2347 261.744 54.448V61.744C261.744 61.9147 261.659 62 261.488 62H240.816ZM287.815 62.64C285.511 62.64 283.399 62.064 281.479 60.912C279.602 59.7173 278.087 58.16 276.935 56.24C275.826 54.2773 275.271 52.1227 275.271 49.776V46.832C275.271 46.6187 275.378 46.512 275.591 46.512H282.759C282.93 46.512 283.015 46.6187 283.015 46.832V49.776C283.015 51.184 283.484 52.4 284.423 53.424C285.362 54.4053 286.492 54.896 287.815 54.896C289.138 54.896 290.268 54.384 291.207 53.36C292.146 52.336 292.615 51.1413 292.615 49.776C292.615 48.1973 291.591 46.832 289.543 45.68C288.86 45.296 287.794 44.6987 286.343 43.888C284.892 43.0773 283.527 42.3093 282.247 41.584C279.9 40.2187 278.151 38.512 276.999 36.464C275.89 34.3733 275.335 32.0267 275.335 29.424C275.335 27.0347 275.911 24.9013 277.063 23.024C278.215 21.104 279.73 19.5893 281.607 18.48C283.527 17.3707 285.596 16.816 287.815 16.816C290.076 16.816 292.146 17.392 294.023 18.544C295.943 19.6533 297.458 21.168 298.567 23.088C299.719 24.9653 300.295 27.0773 300.295 29.424V34.672C300.295 34.8427 300.21 34.928 300.039 34.928H292.871C292.7 34.928 292.615 34.8427 292.615 34.672L292.551 29.424C292.551 27.9307 292.082 26.7147 291.143 25.776C290.204 24.8373 289.095 24.368 287.815 24.368C286.492 24.368 285.362 24.88 284.423 25.904C283.484 26.8853 283.015 28.0587 283.015 29.424C283.015 30.832 283.314 32.0053 283.911 32.944C284.508 33.8827 285.596 34.7787 287.175 35.632C287.388 35.76 287.794 35.9947 288.391 36.336C289.031 36.6347 289.714 36.9973 290.439 37.424C291.164 37.808 291.804 38.1493 292.359 38.448C292.956 38.7467 293.319 38.9387 293.447 39.024C295.58 40.2187 297.266 41.6907 298.503 43.44C299.74 45.1467 300.359 47.2587 300.359 49.776C300.359 52.208 299.783 54.4053 298.631 56.368C297.522 58.288 296.007 59.824 294.087 60.976C292.21 62.0853 290.119 62.64 287.815 62.64ZM310.898 62C310.727 62 310.642 61.8933 310.642 61.68V25.2H302.322C302.108 25.2 302.002 25.0933 302.002 24.88L302.066 17.712C302.066 17.5413 302.151 17.456 302.322 17.456H326.642C326.855 17.456 326.962 17.5413 326.962 17.712V24.88C326.962 25.0933 326.876 25.2 326.706 25.2H318.322L318.385 61.68C318.385 61.8933 318.3 62 318.13 62H310.898ZM340.525 62.64C338.221 62.64 336.109 62.064 334.189 60.912C332.312 59.7173 330.797 58.16 329.645 56.24C328.493 54.2773 327.917 52.1227 327.917 49.776L327.981 29.488C327.981 27.1413 328.536 25.008 329.645 23.088C330.797 21.168 332.333 19.632 334.253 18.48C336.173 17.328 338.264 16.752 340.525 16.752C342.829 16.752 344.92 17.328 346.797 18.48C348.674 19.632 350.168 21.168 351.277 23.088C352.429 25.008 353.005 27.1413 353.005 29.488L353.069 49.776C353.069 52.1227 352.493 54.2773 351.341 56.24C350.232 58.16 348.717 59.7173 346.797 60.912C344.92 62.064 342.829 62.64 340.525 62.64ZM340.525 54.896C341.805 54.896 342.914 54.384 343.853 53.36C344.834 52.2933 345.325 51.0987 345.325 49.776L345.261 29.488C345.261 28.08 344.813 26.8853 343.917 25.904C343.021 24.9227 341.89 24.432 340.525 24.432C339.202 24.432 338.072 24.9227 337.133 25.904C336.194 26.8427 335.725 28.0373 335.725 29.488V49.776C335.725 51.184 336.194 52.4 337.133 53.424C338.072 54.4053 339.202 54.896 340.525 54.896ZM358.191 62C358.02 62 357.935 61.8933 357.935 61.68L358.063 17.712C358.063 17.5413 358.148 17.456 358.319 17.456H371.247C373.551 17.456 375.663 18.032 377.583 19.184C379.546 20.2933 381.103 21.808 382.255 23.728C383.407 25.6053 383.983 27.7387 383.983 30.128C383.983 31.7067 383.748 33.136 383.279 34.416C382.81 35.6533 382.255 36.72 381.615 37.616C380.975 38.4693 380.399 39.1093 379.887 39.536C382.191 42.096 383.343 45.104 383.343 48.56L383.407 61.68C383.407 61.8933 383.3 62 383.087 62H375.855C375.684 62 375.599 61.936 375.599 61.808V48.56C375.599 47.024 375.044 45.7013 373.935 44.592C372.868 43.44 371.546 42.864 369.967 42.864H365.743L365.679 61.68C365.679 61.8933 365.594 62 365.423 62H358.191ZM365.743 35.184H371.247C372.57 35.184 373.743 34.6933 374.767 33.712C375.791 32.7307 376.303 31.536 376.303 30.128C376.303 28.7627 375.791 27.5893 374.767 26.608C373.786 25.6267 372.612 25.136 371.247 25.136H365.743V35.184ZM392.825 62C392.697 62 392.633 61.9147 392.633 61.744L392.697 43.568L384.12 17.712C384.078 17.5413 384.142 17.456 384.312 17.456H391.417C391.63 17.456 391.758 17.5413 391.801 17.712L396.537 34.928L401.337 17.712C401.379 17.5413 401.486 17.456 401.657 17.456H408.825C408.995 17.456 409.059 17.5413 409.017 17.712L400.377 43.312L400.441 61.744C400.441 61.9147 400.355 62 400.185 62H392.825Z" fill="black"/>
</svg>
