<svg width="275" height="78" viewBox="0 0 275 78" fill="none" xmlns="http://www.w3.org/2000/svg">
<path d="M0 10C0 4.47715 4.47715 0 10 0H265C270.523 0 275 4.47715 275 10V68C275 73.5229 270.523 78 265 78H10C4.47716 78 0 73.5229 0 68V10Z" fill="#AE8FF0"/>
<path d="M24.816 61C24.6453 61 24.56 60.8933 24.56 60.68L24.688 16.712C24.688 16.5413 24.7733 16.456 24.944 16.456H32.752C32.9227 16.456 33.072 16.5413 33.2 16.712L39.024 25.16L44.848 16.712C44.976 16.5413 45.1253 16.456 45.296 16.456H53.168C53.3387 16.456 53.424 16.5413 53.424 16.712L53.552 60.68C53.552 60.8933 53.4667 61 53.296 61H46.064C45.8933 61 45.808 60.8933 45.808 60.68L45.744 28.04L39.024 37.768L32.368 28.04L32.304 60.68C32.304 60.8933 32.2187 61 32.048 61H24.816ZM56.759 60.68L64.695 16.712C64.7377 16.5413 64.8443 16.456 65.015 16.456H74.295C74.4657 16.456 74.5723 16.5413 74.615 16.712L82.231 60.68C82.2737 60.8933 82.1883 61 81.975 61H74.871C74.7003 61 74.5937 60.8933 74.551 60.68L73.847 56.008H65.143L64.439 60.68C64.3963 60.8933 64.2897 61 64.119 61H57.015C56.8443 61 56.759 60.8933 56.759 60.68ZM66.423 49.16H72.567L69.943 31.176L69.559 28.808L69.303 31.176L66.423 49.16ZM86.5675 61C86.3542 61 86.2475 60.8933 86.2475 60.68L86.3115 16.712C86.3115 16.5413 86.3968 16.456 86.5675 16.456H93.7355C93.9062 16.456 93.9915 16.5413 93.9915 16.712L94.0555 60.68C94.0555 60.8933 93.9702 61 93.7995 61H86.5675ZM100.261 61C99.9197 61 99.749 60.8507 99.749 60.552L99.685 16.968C99.685 16.6267 99.8557 16.456 100.197 16.456H105.957L116.773 41.672L116.453 16.968C116.453 16.6267 116.645 16.456 117.029 16.456H123.365C123.621 16.456 123.749 16.6267 123.749 16.968L123.813 60.616C123.813 60.872 123.706 61 123.493 61H117.861L106.789 37.448L107.237 60.488C107.237 60.8293 107.045 61 106.661 61H100.261ZM139.129 61C138.958 61 138.873 60.8933 138.873 60.68L139.001 16.712C139.001 16.5413 139.086 16.456 139.257 16.456H147.065C147.235 16.456 147.385 16.5413 147.513 16.712L153.337 25.16L159.161 16.712C159.289 16.5413 159.438 16.456 159.609 16.456H167.481C167.651 16.456 167.737 16.5413 167.737 16.712L167.865 60.68C167.865 60.8933 167.779 61 167.609 61H160.377C160.206 61 160.121 60.8933 160.121 60.68L160.057 28.04L153.337 37.768L146.681 28.04L146.617 60.68C146.617 60.8933 146.531 61 146.361 61H139.129ZM173.504 61C173.333 61 173.248 60.8933 173.248 60.68L173.312 16.712C173.312 16.5413 173.397 16.456 173.568 16.456H194.112C194.282 16.456 194.368 16.5627 194.368 16.776V23.944C194.368 24.1147 194.282 24.2 194.112 24.2H180.992V34.184H194.112C194.282 34.184 194.368 34.2693 194.368 34.44L194.432 41.672C194.432 41.8427 194.346 41.928 194.176 41.928H180.992V53.128H194.176C194.346 53.128 194.432 53.2347 194.432 53.448V60.744C194.432 60.9147 194.346 61 194.176 61H173.504ZM200.699 61C200.357 61 200.187 60.8507 200.187 60.552L200.123 16.968C200.123 16.6267 200.293 16.456 200.635 16.456H206.395L217.211 41.672L216.891 16.968C216.891 16.6267 217.083 16.456 217.467 16.456H223.803C224.059 16.456 224.187 16.6267 224.187 16.968L224.251 60.616C224.251 60.872 224.144 61 223.931 61H218.299L207.227 37.448L207.675 60.488C207.675 60.8293 207.483 61 207.099 61H200.699ZM241.586 61.64C239.325 61.64 237.234 61.064 235.314 59.912C233.394 58.7173 231.858 57.1387 230.706 55.176C229.597 53.2133 229.042 51.0587 229.042 48.712L229.17 16.712C229.17 16.5413 229.255 16.456 229.426 16.456H236.594C236.765 16.456 236.85 16.5413 236.85 16.712V48.712C236.85 50.1627 237.298 51.4 238.194 52.424C239.133 53.4053 240.263 53.896 241.586 53.896C242.951 53.896 244.082 53.4053 244.978 52.424C245.917 51.4 246.386 50.1627 246.386 48.712V16.712C246.386 16.5413 246.471 16.456 246.642 16.456H253.81C253.981 16.456 254.066 16.5413 254.066 16.712L254.194 48.712C254.194 51.1013 253.618 53.2773 252.466 55.24C251.357 57.2027 249.842 58.76 247.922 59.912C246.045 61.064 243.933 61.64 241.586 61.64Z" fill="#030303"/>
</svg>
