<svg width="342" height="78" viewBox="0 0 342 78" fill="none" xmlns="http://www.w3.org/2000/svg">
<path d="M0 10C0 4.47715 4.47715 0 10 0H332C337.523 0 342 4.47715 342 10V68C342 73.5229 337.523 78 332 78H10C4.47716 78 0 73.5229 0 68V10Z" fill="#AE8FF0"/>
<path d="M48.136 62C47.7947 62 47.624 61.8507 47.624 61.552L47.56 17.968C47.56 17.6267 47.7307 17.456 48.072 17.456H53.832L64.648 42.672L64.328 17.968C64.328 17.6267 64.52 17.456 64.904 17.456H71.24C71.496 17.456 71.624 17.6267 71.624 17.968L71.688 61.616C71.688 61.872 71.5813 62 71.368 62H65.736L54.664 38.448L55.112 61.488C55.112 61.8293 54.92 62 54.536 62H48.136ZM77.5035 62C77.3328 62 77.2475 61.8933 77.2475 61.68L77.3115 17.712C77.3115 17.5413 77.3968 17.456 77.5675 17.456H98.1115C98.2822 17.456 98.3675 17.5627 98.3675 17.776V24.944C98.3675 25.1147 98.2822 25.2 98.1115 25.2H84.9915V35.184H98.1115C98.2822 35.184 98.3675 35.2693 98.3675 35.44L98.4315 42.672C98.4315 42.8427 98.3462 42.928 98.1755 42.928H84.9915V54.128H98.1755C98.3462 54.128 98.4315 54.2347 98.4315 54.448V61.744C98.4315 61.9147 98.3462 62 98.1755 62H77.5035ZM100.764 62C100.593 62 100.529 61.8933 100.572 61.68L107.868 38.832L100.7 17.712C100.657 17.5413 100.721 17.456 100.892 17.456H108.06C108.273 17.456 108.401 17.5413 108.444 17.712L112.732 32.944L117.083 17.712C117.126 17.5413 117.254 17.456 117.468 17.456H124.572C124.742 17.456 124.806 17.5413 124.764 17.712L117.596 38.768L124.828 61.68C124.913 61.8933 124.849 62 124.636 62H117.468C117.297 62 117.169 61.8933 117.083 61.68L112.732 45.168L108.316 61.68C108.273 61.8933 108.145 62 107.932 62H100.764ZM135.023 62C134.852 62 134.767 61.8933 134.767 61.68V25.2H126.447C126.233 25.2 126.127 25.0933 126.127 24.88L126.191 17.712C126.191 17.5413 126.276 17.456 126.447 17.456H150.767C150.98 17.456 151.087 17.5413 151.087 17.712V24.88C151.087 25.0933 151.001 25.2 150.831 25.2H142.447L142.51 61.68C142.51 61.8933 142.425 62 142.255 62H135.023ZM164.004 62C163.833 62 163.748 61.8933 163.748 61.68L163.812 17.776C163.812 17.5627 163.918 17.456 164.132 17.456H171.236C171.449 17.456 171.556 17.5627 171.556 17.776L171.492 54.128H184.676C184.889 54.128 184.996 54.2347 184.996 54.448V61.68C184.996 61.8933 184.889 62 184.676 62H164.004ZM189.441 62C189.27 62 189.185 61.8933 189.185 61.68L189.249 17.712C189.249 17.5413 189.334 17.456 189.505 17.456H210.049C210.22 17.456 210.305 17.5627 210.305 17.776V24.944C210.305 25.1147 210.22 25.2 210.049 25.2H196.929V35.184H210.049C210.22 35.184 210.305 35.2693 210.305 35.44L210.369 42.672C210.369 42.8427 210.284 42.928 210.113 42.928H196.929V54.128H210.113C210.284 54.128 210.369 54.2347 210.369 54.448V61.744C210.369 61.9147 210.284 62 210.113 62H189.441ZM223.228 62C223.057 62 222.951 61.8933 222.908 61.68L214.076 17.712C214.033 17.5413 214.119 17.456 214.332 17.456H221.564C221.735 17.456 221.841 17.5413 221.884 17.712L227.132 47.024L232.252 17.712C232.295 17.5413 232.401 17.456 232.572 17.456H239.74C239.953 17.456 240.039 17.5413 239.996 17.712L231.292 61.68C231.249 61.8933 231.143 62 230.972 62H223.228ZM244.004 62C243.833 62 243.748 61.8933 243.748 61.68L243.812 17.712C243.812 17.5413 243.897 17.456 244.068 17.456H264.612C264.782 17.456 264.868 17.5627 264.868 17.776V24.944C264.868 25.1147 264.782 25.2 264.612 25.2H251.492V35.184H264.612C264.782 35.184 264.868 35.2693 264.868 35.44L264.932 42.672C264.932 42.8427 264.846 42.928 264.676 42.928H251.492V54.128H264.676C264.846 54.128 264.932 54.2347 264.932 54.448V61.744C264.932 61.9147 264.846 62 264.676 62H244.004ZM270.879 62C270.708 62 270.623 61.8933 270.623 61.68L270.687 17.776C270.687 17.5627 270.793 17.456 271.007 17.456H278.111C278.324 17.456 278.431 17.5627 278.431 17.776L278.367 54.128H291.551C291.764 54.128 291.871 54.2347 291.871 54.448V61.68C291.871 61.8933 291.764 62 291.551 62H270.879Z" fill="black"/>
</svg>
