<svg width="197" height="78" viewBox="0 0 197 78" fill="none" xmlns="http://www.w3.org/2000/svg">
<path d="M0 10C0 4.47715 4.47715 0 10 0H187C192.523 0 197 4.47715 197 10V68C197 73.5229 192.523 78 187 78H10C4.47715 78 0 73.5229 0 68V10Z" fill="#AE8FF0"/>
<path d="M48.136 61C47.7947 61 47.624 60.8507 47.624 60.552L47.56 16.968C47.56 16.6267 47.7307 16.456 48.072 16.456H53.832L64.648 41.672L64.328 16.968C64.328 16.6267 64.52 16.456 64.904 16.456H71.24C71.496 16.456 71.624 16.6267 71.624 16.968L71.688 60.616C71.688 60.872 71.5813 61 71.368 61H65.736L54.664 37.448L55.112 60.488C55.112 60.8293 54.92 61 54.536 61H48.136ZM77.5035 61C77.3328 61 77.2475 60.8933 77.2475 60.68L77.3115 16.712C77.3115 16.5413 77.3968 16.456 77.5675 16.456H98.1115C98.2822 16.456 98.3675 16.5627 98.3675 16.776V23.944C98.3675 24.1147 98.2822 24.2 98.1115 24.2H84.9915V34.184H98.1115C98.2822 34.184 98.3675 34.2693 98.3675 34.44L98.4315 41.672C98.4315 41.8427 98.3462 41.928 98.1755 41.928H84.9915V53.128H98.1755C98.3462 53.128 98.4315 53.2347 98.4315 53.448V60.744C98.4315 60.9147 98.3462 61 98.1755 61H77.5035ZM100.764 61C100.593 61 100.529 60.8933 100.572 60.68L107.868 37.832L100.7 16.712C100.657 16.5413 100.721 16.456 100.892 16.456H108.06C108.273 16.456 108.401 16.5413 108.444 16.712L112.732 31.944L117.083 16.712C117.126 16.5413 117.254 16.456 117.468 16.456H124.572C124.742 16.456 124.806 16.5413 124.764 16.712L117.596 37.768L124.828 60.68C124.913 60.8933 124.849 61 124.636 61H117.468C117.297 61 117.169 60.8933 117.083 60.68L112.732 44.168L108.316 60.68C108.273 60.8933 108.145 61 107.932 61H100.764ZM135.023 61C134.852 61 134.767 60.8933 134.767 60.68V24.2H126.447C126.233 24.2 126.127 24.0933 126.127 23.88L126.191 16.712C126.191 16.5413 126.276 16.456 126.447 16.456H150.767C150.98 16.456 151.087 16.5413 151.087 16.712V23.88C151.087 24.0933 151.001 24.2 150.831 24.2H142.447L142.51 60.68C142.51 60.8933 142.425 61 142.255 61H135.023Z" fill="#030303"/>
</svg>
