<svg width="337" height="79" viewBox="0 0 337 79" fill="none" xmlns="http://www.w3.org/2000/svg">
<path d="M0 11C0 5.47715 4.47715 1 10 1H327C332.523 1 337 5.47715 337 11V69C337 74.5229 332.523 79 327 79H10C4.47715 79 0 74.5229 0 69V11Z" fill="#AE8FF0"/>
<path d="M47.88 61C47.6667 61 47.56 60.8933 47.56 60.68L47.688 16.712C47.688 16.5413 47.7733 16.456 47.944 16.456H60.232C64.1573 16.456 67.2507 17.6507 69.512 20.04C71.816 22.4293 72.968 25.672 72.968 29.768C72.968 32.7973 72.3707 35.4213 71.176 37.64C69.9813 39.8587 68.424 41.5653 66.504 42.76C64.584 43.9547 62.4933 44.552 60.232 44.552H55.368V60.68C55.368 60.8933 55.2613 61 55.048 61H47.88ZM55.368 36.808H60.232C61.5973 36.808 62.7707 36.168 63.752 34.888C64.776 33.5653 65.288 31.8587 65.288 29.768C65.288 28.104 64.84 26.7387 63.944 25.672C63.048 24.6053 61.8107 24.072 60.232 24.072L55.368 24.136V36.808ZM77.066 61C76.8953 61 76.81 60.8933 76.81 60.68L76.874 16.776C76.874 16.5627 76.9807 16.456 77.194 16.456H84.298C84.5113 16.456 84.618 16.5627 84.618 16.776L84.554 53.128H97.738C97.9513 53.128 98.058 53.2347 98.058 53.448V60.68C98.058 60.8933 97.9513 61 97.738 61H77.066ZM100.072 60.68L108.008 16.712C108.05 16.5413 108.157 16.456 108.328 16.456H117.608C117.778 16.456 117.885 16.5413 117.928 16.712L125.544 60.68C125.586 60.8933 125.501 61 125.288 61H118.184C118.013 61 117.906 60.8933 117.864 60.68L117.16 56.008H108.456L107.752 60.68C107.709 60.8933 107.602 61 107.432 61H100.328C100.157 61 100.072 60.8933 100.072 60.68ZM109.736 49.16H115.88L113.256 31.176L112.872 28.808L112.616 31.176L109.736 49.16ZM132.7 61C132.572 61 132.508 60.9147 132.508 60.744L132.572 42.568L123.995 16.712C123.953 16.5413 124.017 16.456 124.188 16.456H131.292C131.505 16.456 131.633 16.5413 131.676 16.712L136.412 33.928L141.212 16.712C141.254 16.5413 141.361 16.456 141.532 16.456H148.7C148.87 16.456 148.934 16.5413 148.892 16.712L140.252 42.312L140.316 60.744C140.316 60.9147 140.23 61 140.06 61H132.7ZM161.259 60.68L169.195 16.712C169.238 16.5413 169.344 16.456 169.515 16.456H178.795C178.966 16.456 179.072 16.5413 179.115 16.712L186.731 60.68C186.774 60.8933 186.688 61 186.475 61H179.371C179.2 61 179.094 60.8933 179.051 60.68L178.347 56.008H169.643L168.939 60.68C168.896 60.8933 168.79 61 168.619 61H161.515C161.344 61 161.259 60.8933 161.259 60.68ZM170.923 49.16H177.067L174.443 31.176L174.059 28.808L173.803 31.176L170.923 49.16ZM201.085 61.64C198.781 61.64 196.69 61.064 194.812 59.912C192.935 58.76 191.421 57.224 190.269 55.304C189.159 53.3413 188.605 51.1653 188.605 48.776V28.488C188.605 26.184 189.159 24.072 190.269 22.152C191.421 20.1893 192.935 18.632 194.812 17.48C196.733 16.328 198.823 15.752 201.085 15.752C203.431 15.752 205.543 16.328 207.421 17.48C209.341 18.5893 210.855 20.104 211.965 22.024C213.074 23.944 213.629 26.0987 213.629 28.488V31.432C213.629 31.6027 213.522 31.688 213.309 31.688H206.141C205.97 31.688 205.885 31.6027 205.885 31.432V29C205.885 27.3787 205.415 26.0347 204.477 24.968C203.581 23.9013 202.45 23.368 201.085 23.368C199.847 23.368 198.738 23.88 197.757 24.904C196.818 25.928 196.349 27.1227 196.349 28.488V48.776C196.349 50.184 196.818 51.4 197.757 52.424C198.695 53.4053 199.805 53.896 201.085 53.896C202.45 53.896 203.581 53.4053 204.477 52.424C205.415 51.4427 205.885 50.2267 205.885 48.776V45.64H201.405C201.191 45.64 201.085 45.5333 201.085 45.32V38.152C201.085 37.9387 201.191 37.832 201.405 37.832H213.373C213.543 37.832 213.629 37.9387 213.629 38.152V48.776C213.629 51.1653 213.053 53.3413 211.901 55.304C210.791 57.224 209.298 58.76 207.421 59.912C205.543 61.064 203.431 61.64 201.085 61.64ZM215.822 60.68L223.758 16.712C223.8 16.5413 223.907 16.456 224.078 16.456H233.358C233.528 16.456 233.635 16.5413 233.678 16.712L241.294 60.68C241.336 60.8933 241.251 61 241.038 61H233.934C233.763 61 233.656 60.8933 233.614 60.68L232.91 56.008H224.206L223.502 60.68C223.459 60.8933 223.352 61 223.182 61H216.078C215.907 61 215.822 60.8933 215.822 60.68ZM225.486 49.16H231.63L229.006 31.176L228.622 28.808L228.366 31.176L225.486 49.16ZM245.818 61C245.604 61 245.498 60.8933 245.498 60.68L245.562 16.712C245.562 16.5413 245.647 16.456 245.818 16.456H252.986C253.156 16.456 253.242 16.5413 253.242 16.712L253.306 60.68C253.306 60.8933 253.22 61 253.05 61H245.818ZM259.511 61C259.17 61 258.999 60.8507 258.999 60.552L258.935 16.968C258.935 16.6267 259.106 16.456 259.447 16.456H265.207L276.023 41.672L275.703 16.968C275.703 16.6267 275.895 16.456 276.279 16.456H282.615C282.871 16.456 282.999 16.6267 282.999 16.968L283.063 60.616C283.063 60.872 282.956 61 282.743 61H277.111L266.039 37.448L266.487 60.488C266.487 60.8293 266.295 61 265.911 61H259.511Z" fill="black"/>
</svg>
