<svg width="223" height="80" viewBox="0 0 223 80" fill="none" xmlns="http://www.w3.org/2000/svg">
<path d="M0 10C0 4.47715 4.47715 0 10 0H213C218.523 0 223 4.47715 223 10V68C223 73.5229 218.523 78 213 78H10C4.47716 78 0 73.5229 0 68V10Z" fill="#AE8FF0"/>
<path d="M58.44 61.64C56.136 61.64 54.024 61.064 52.104 59.912C50.2267 58.7173 48.712 57.16 47.56 55.24C46.4507 53.2773 45.896 51.1227 45.896 48.776V45.832C45.896 45.6187 46.0027 45.512 46.216 45.512H53.384C53.5547 45.512 53.64 45.6187 53.64 45.832V48.776C53.64 50.184 54.1093 51.4 55.048 52.424C55.9867 53.4053 57.1173 53.896 58.44 53.896C59.7627 53.896 60.8933 53.384 61.832 52.36C62.7707 51.336 63.24 50.1413 63.24 48.776C63.24 47.1973 62.216 45.832 60.168 44.68C59.4853 44.296 58.4187 43.6987 56.968 42.888C55.5173 42.0773 54.152 41.3093 52.872 40.584C50.5253 39.2187 48.776 37.512 47.624 35.464C46.5147 33.3733 45.96 31.0267 45.96 28.424C45.96 26.0347 46.536 23.9013 47.688 22.024C48.84 20.104 50.3547 18.5893 52.232 17.48C54.152 16.3707 56.2213 15.816 58.44 15.816C60.7013 15.816 62.7707 16.392 64.648 17.544C66.568 18.6533 68.0827 20.168 69.192 22.088C70.344 23.9653 70.92 26.0773 70.92 28.424V33.672C70.92 33.8427 70.8347 33.928 70.664 33.928H63.496C63.3253 33.928 63.24 33.8427 63.24 33.672L63.176 28.424C63.176 26.9307 62.7067 25.7147 61.768 24.776C60.8293 23.8373 59.72 23.368 58.44 23.368C57.1173 23.368 55.9867 23.88 55.048 24.904C54.1093 25.8853 53.64 27.0587 53.64 28.424C53.64 29.832 53.9387 31.0053 54.536 31.944C55.1333 32.8827 56.2213 33.7787 57.8 34.632C58.0133 34.76 58.4187 34.9947 59.016 35.336C59.656 35.6347 60.3387 35.9973 61.064 36.424C61.7893 36.808 62.4293 37.1493 62.984 37.448C63.5813 37.7467 63.944 37.9387 64.072 38.024C66.2053 39.2187 67.8907 40.6907 69.128 42.44C70.3653 44.1467 70.984 46.2587 70.984 48.776C70.984 51.208 70.408 53.4053 69.256 55.368C68.1467 57.288 66.632 58.824 64.712 59.976C62.8347 61.0853 60.744 61.64 58.44 61.64ZM81.5225 61C81.3518 61 81.2665 60.8933 81.2665 60.68V24.2H72.9465C72.7332 24.2 72.6265 24.0933 72.6265 23.88L72.6905 16.712C72.6905 16.5413 72.7758 16.456 72.9465 16.456H97.2665C97.4798 16.456 97.5865 16.5413 97.5865 16.712V23.88C97.5865 24.0933 97.5012 24.2 97.3305 24.2H88.9465L89.0105 60.68C89.0105 60.8933 88.9252 61 88.7545 61H81.5225ZM95.634 60.68L103.57 16.712C103.613 16.5413 103.719 16.456 103.89 16.456H113.17C113.341 16.456 113.447 16.5413 113.49 16.712L121.106 60.68C121.149 60.8933 121.063 61 120.85 61H113.746C113.575 61 113.469 60.8933 113.426 60.68L112.722 56.008H104.018L103.314 60.68C103.271 60.8933 103.165 61 102.994 61H95.89C95.7193 61 95.634 60.8933 95.634 60.68ZM105.298 49.16H111.442L108.818 31.176L108.434 28.808L108.178 31.176L105.298 49.16ZM125.379 61C125.208 61 125.123 60.8933 125.123 60.68L125.251 16.712C125.251 16.5413 125.336 16.456 125.507 16.456H138.435C140.739 16.456 142.851 17.032 144.771 18.184C146.733 19.2933 148.291 20.808 149.443 22.728C150.595 24.6053 151.171 26.7387 151.171 29.128C151.171 30.7067 150.936 32.136 150.467 33.416C149.997 34.6533 149.443 35.72 148.803 36.616C148.163 37.4693 147.587 38.1093 147.075 38.536C149.379 41.096 150.531 44.104 150.531 47.56L150.595 60.68C150.595 60.8933 150.488 61 150.275 61H143.043C142.872 61 142.787 60.936 142.787 60.808V47.56C142.787 46.024 142.232 44.7013 141.123 43.592C140.056 42.44 138.733 41.864 137.155 41.864H132.931L132.867 60.68C132.867 60.8933 132.781 61 132.611 61H125.379ZM132.931 34.184H138.435C139.757 34.184 140.931 33.6933 141.955 32.712C142.979 31.7307 143.491 30.536 143.491 29.128C143.491 27.7627 142.979 26.5893 141.955 25.608C140.973 24.6267 139.8 24.136 138.435 24.136H132.931V34.184ZM161.148 61C160.977 61 160.892 60.8933 160.892 60.68V24.2H152.572C152.358 24.2 152.252 24.0933 152.252 23.88L152.316 16.712C152.316 16.5413 152.401 16.456 152.572 16.456H176.892C177.105 16.456 177.212 16.5413 177.212 16.712V23.88C177.212 24.0933 177.126 24.2 176.956 24.2H168.572L168.635 60.68C168.635 60.8933 168.55 61 168.38 61H161.148Z" fill="black"/>
</svg>
